<!--?xml version="1.0" encoding="utf-8"?-->
<!-- Generator: Adobe Illustrator 19.1.1, SVG Export Plug-In . SVG Version: 6.00 Build 0)  -->
<svg version="1.1" id="_x31_0" xmlns="http://www.w3.org/2000/svg" xmlns:xlink="http://www.w3.org/1999/xlink" x="0px" y="0px" viewBox="0 0 512 512" style="width: 128px; height: 128px; opacity: 1;" xml:space="preserve">
<style type="text/css">
	.st0{fill:#374149;}
</style>
<g>
	<path class="st0" d="M256,0C114.844,0,0,114.836,0,256c0,141.156,114.844,256,256,256c141.16,0,256-114.844,256-256
		C512,114.836,397.16,0,256,0z M471.742,326.41l-32.082-10.762l-0.062-0.024v0.004l-0.152-0.05l-1.153,3.445
		c-7.66,23.008-19.426,44.062-34.957,62.594l-2.324,2.774l24.863,20.91l0.504,0.426c-13.676,15.539-29.45,29.164-46.86,40.508
		c-0.281,0.18-0.542,0.386-0.828,0.566l-17.242-27.594l-0.102-0.164l-0.086-0.137l-3.082,1.945
		c-7.879,4.977-16.238,9.399-24.836,13.165c-13.762,6.015-27.875,10.374-41.938,12.961l-3.418,0.629h-0.004l-0.16,0.027
		l5.958,31.851l0.05,0.282c-12.309,2.078-24.942,3.211-37.832,3.211c-12.84,0-25.422-1.133-37.687-3.195
		c-0.047-0.008-0.098-0.016-0.145-0.024l5.977-31.941l0.004-0.024l0.031-0.16l-3.582-0.656
		c-14.066-2.586-28.176-6.946-41.934-12.954c-8.602-3.773-16.961-8.195-24.844-13.172l-3.082-1.945l-17.359,27.785l-0.074,0.114
		c-17.398-11.226-33.137-24.778-46.848-40.191c-0.27-0.309-0.566-0.586-0.832-0.895l25.367-21.328l-2.324-2.774
		c-15.535-18.531-27.297-39.586-34.957-62.594l-1.102-3.293v-0.004l-0.051-0.148l-32.203,10.801l-0.098,0.031
		c-6.336-19.363-10.082-39.867-10.945-61.11c-0.016-0.426-0.07-0.844-0.082-1.27l34.238-0.344h0.074h0.16l-0.039-3.633
		c-0.285-24.109,3.977-47.82,12.672-70.484l1.234-3.234l0.008-0.008h-0.004l0.058-0.148l-32.84-12.563l-0.199-0.078
		c7.68-19.625,18.027-37.902,30.578-54.438c0.262-0.34,0.488-0.699,0.75-1.039l27.844,22.266l2.266-2.82
		c15.129-18.836,33.453-34.461,54.473-46.422l3.004-1.714l0.141-0.082L145.75,57.774l-0.035-0.062
		c18.168-10.145,37.874-17.805,58.66-22.661c0.367-0.082,0.726-0.202,1.094-0.285l7.488,35.554l0.012,0.063h0.004l0.031,0.156
		l3.558-0.758c25.695-5.477,53.18-5.477,78.879,0l3.402,0.726L299,70.539l7.461-35.446l0.07-0.332
		c20.832,4.754,40.558,12.387,58.782,22.45c0.32,0.179,0.652,0.324,0.969,0.504l-17.93,31.574l3.149,1.797
		c21.016,11.962,39.344,27.586,54.469,46.422l2.27,2.82l27.449-21.953l0.395-0.317c12.699,16.535,23.121,34.875,30.922,54.547
		c0.125,0.316,0.278,0.621,0.402,0.938l-32.726,12.515l-0.164,0.062l-0.149,0.059l1.301,3.39
		c8.695,22.664,12.957,46.375,12.672,70.484l-0.043,3.633l33.746,0.34l0.734,0.008c-0.75,21.328-4.473,41.89-10.734,61.344
		C471.934,325.718,471.855,326.07,471.742,326.41z" style="fill: rgb(231, 213, 0);"></path>
	<path class="st0" d="M183.754,181.981c0.294-0.13,0.598-0.344,0.891-0.45l-0.031-0.035c0.046-0.019,0.098-0.058,0.144-0.082
		l-40.316-40.321l-0.176-0.179l-0.114-0.11l-6.129,6.211l39.297,39.297C179.438,184.496,181.617,183.086,183.754,181.981z" style="fill: rgb(231, 213, 0);"></path>
	<polygon class="st0" points="343.57,340.172 343.55,340.207 343.434,340.094 338.973,347.969 367.851,376.938 373.953,370.84 
		373.953,370.836 374.066,370.726 349.898,346.554 	" style="fill: rgb(231, 213, 0);"></polygon>
	<polygon class="st0" points="168.77,340.203 168.738,340.234 168.656,340.094 138.023,370.726 144.152,376.938 173.117,347.969 
		169.656,341.859 	" style="fill: rgb(231, 213, 0);"></polygon>
	<path class="st0" d="M337.832,170.828l-10.519,10.442c0.015,0.008,0.035,0.019,0.05,0.027l-0.117,0.118
		c2.449,1.14,4.984,2.797,7.523,4.898l39.183-39.18l0.114-0.117l-6.215-6.211L337.832,170.828z" style="fill: rgb(231, 213, 0);"></path>
	<path class="st0" d="M234.996,273.75c0.786,3.32,1.664,6.562,2.715,9.625c0.175,0.789,0.438,1.492,0.695,2.274
		c0.527,1.492,1.93,2.367,3.414,2.281c4.641-0.351,9.367-0.531,14.18-0.531c4.813,0,9.539,0.18,14.18,0.531
		c1.574,0.086,2.976-0.789,3.5-2.281c0.262-0.782,0.527-1.485,0.703-2.274c1.05-3.062,1.922-6.305,2.71-9.625
		c2.715-10.946,4.461-23.196,5.074-34.836c0.18-2.891,0.266-5.86,0.266-8.664c0-1.313,0-2.626-0.086-3.852
		c-0.875-30.89-12.344-40.344-26.348-40.344c-13.914,0-25.469,9.454-26.344,40.258c-0.086,1.218-0.086,2.538-0.086,3.938
		c0,2.804,0.086,5.773,0.266,8.664C230.446,250.554,232.282,262.805,234.996,273.75z" style="fill: rgb(231, 213, 0);"></path>
	<path class="st0" d="M191.672,293.266c-6.649-8.398-12.863-17.508-17.766-26.344c-10.062-18.297-11.902-30.898-8.84-39.554
		c0.09-0.094,0.09-0.18,0.09-0.266c0.258-0.618,0.524-1.141,0.786-1.758c0.09-0.172,0.175-0.344,0.262-0.516
		c0.266-0.445,0.523-0.875,0.789-1.32c0.262-0.438,0.527-0.867,0.875-1.313c0.086-0.172,0.176-0.351,0.262-0.438l1.078-1.25
		l0.449-0.434c-0.023-0.008-0.042-0.008-0.066-0.016l0.118-0.137c-6.305-2.102-12.258-1.046-17.77,2.016
		c-12.778,7.086-18.207,21.789-1.836,51.546c5.778,10.586,13.652,21.618,21.793,31.157c0.262,0.309,0.664,0.367,1.004,0.554
		c0.11,0.058,0.203,0.125,0.32,0.172c0.962,0.394,2.024,0.504,2.962-0.023c4.293-2.539,8.93-4.727,14.09-6.742
		C192.457,297.726,193.16,295.102,191.672,293.266z" style="fill: rgb(231, 213, 0);"></path>
	<path class="st0" d="M340.199,304.641c8.137-9.539,16.016-20.57,21.789-31.157c16.367-29.758,10.942-44.461-1.922-51.546
		c-5.254-2.89-10.942-4.023-16.981-2.282c-0.171,0.062-0.312,0.086-0.457,0.118c-0.082,0.015-0.137,0.019-0.214,0.039
		c0,0,0.003,0.007,0.007,0.011c-0.007,0.004-0.027,0.004-0.035,0.012c0,0.086,0,0.086-0.09,0.086c8.051,8.227,9.367,22.493-4.114,47
		c-1.129,2.035-2.343,4.094-3.601,6.149c-0.215,0.351-0.434,0.703-0.649,1.054c-2.582,4.157-5.394,8.309-8.371,12.352
		c-0.203,0.274-0.402,0.542-0.61,0.816c-1.507,2.027-3.046,4.027-4.625,5.973c-0.965,1.226-0.965,2.89-0.172,4.023
		c0.348,0.61,0.961,1.055,1.661,1.313c5.078,2.015,9.804,4.203,14.09,6.742c0.942,0.527,2.004,0.418,2.969,0.023
		c0.117-0.047,0.21-0.114,0.32-0.176C339.539,305.008,339.938,304.95,340.199,304.641z" style="fill: rgb(231, 213, 0);"></path>
	<path class="st0" d="M183.707,244.43c4.203,15.922,11.816,33.602,20.043,47.172c0.789,1.313,2.277,1.836,3.766,1.492
		c3.324-0.789,6.738-1.578,10.238-2.195c1.75-0.344,3.5-0.695,5.336-0.961c2.188-0.344,3.504-2.539,2.715-4.641
		c-0.262-0.61-0.438-1.133-0.61-1.742c-4.113-10.679-7.351-22.5-9.191-33.351c-0.699-4.547-1.141-8.664-1.317-12.43
		c0-0.086-0.086-0.172-0.086-0.258c-0.082-2.016,0-3.852,0-5.688c0.086-0.531,0.086-0.961,0.086-1.492
		c0.09-0.961,0.176-1.922,0.266-2.883c0.086-1.054,0.262-2.015,0.528-2.976v-0.266c0.086-0.703,0.262-1.485,0.434-2.188
		c0.351-1.054,0.613-2.015,0.965-2.976c0.262-0.618,0.438-1.133,0.699-1.664c0.351-0.79,0.699-1.399,1.05-2.102
		c0.086-0.172,0.266-0.438,0.352-0.61c0.262-0.352,0.523-0.789,0.785-1.141c0.618-0.875,1.317-1.664,2.012-2.453
		c0.175-0.172,0.441-0.43,0.703-0.61c0.941-0.942,1.894-1.711,3-2.313c0.035-0.015,0.066-0.042,0.102-0.054
		c-0.004-0.004-0.004-0.008-0.008-0.012c0.05-0.019,0.07-0.074,0.144-0.074c-7.965-13.039-17.766-15.665-27.566-13.211
		c-0.09,0-0.175,0.086-0.266,0.086c-3.058,0.79-5.773,2.008-8.226,3.766C180.82,205.133,176.797,218.61,183.707,244.43z" style="fill: rgb(231, 213, 0);"></path>
	<path class="st0" d="M288.91,289.938c1.84,0.266,3.586,0.617,5.34,0.961c3.5,0.618,7,1.406,10.238,2.195
		c1.489,0.344,2.973-0.179,3.766-1.492c8.313-13.57,15.836-31.25,20.13-47.172c6.824-25.82,2.886-39.297-6.039-45.687
		c-2.454-1.844-5.168-3.062-8.227-3.852c-0.09,0-0.175-0.086-0.266-0.086c-8.835-2.282-17.766-0.18-25.202,9.89
		c-0.086,0-0.086,0.086-0.086,0.086c-0.703,0.874-1.402,1.922-2.106,3.062c0,0,0,0.086-0.082,0.086c0,0.086,0,0.086,0,0.086
		c0.258,0.179,0.609,0.445,0.871,0.617c0.613,0.438,1.226,0.875,1.75,1.313c0.527,0.438,1.051,0.874,1.488,1.398
		c0.618,0.617,1.227,1.312,1.75,2.015c0.262,0.438,0.614,0.961,0.875,1.398c0.09,0.172,0.179,0.352,0.266,0.524
		c0.434,0.702,0.785,1.312,1.05,2.102c0.258,0.531,0.524,1.046,0.699,1.664c0.352,0.961,0.695,1.922,0.961,2.976
		c0.176,0.703,0.352,1.398,0.528,2.188v0.266c0.175,0.961,0.347,1.922,0.434,2.976c0.175,0.962,0.266,1.922,0.266,2.883
		c0.086,0.531,0.086,1.054,0.086,1.578c0.086,1.836,0.086,3.671,0,5.602v0.351c-0.074,1.523-0.222,3.172-0.39,4.848
		c-0.07,0.691-0.153,1.39-0.238,2.094c-0.211,1.738-0.446,3.508-0.774,5.394c-1.746,10.766-4.988,22.578-9.102,33.351
		c-0.172,0.61-0.351,1.133-0.613,1.742C285.496,287.398,286.722,289.594,288.91,289.938z" style="fill: rgb(231, 213, 0);"></path>
	<polygon class="st0" points="272.953,161.492 272.957,161.484 273.07,161.375 256,144.39 239.023,161.375 256,178.438 	" style="fill: rgb(231, 213, 0);"></polygon>
	<path class="st0" d="M330.133,316.984c-4.902-2.89-10.855-5.687-17.855-8.054c-5.164-1.836-10.852-3.414-17.066-4.641
		c-11.465-2.445-24.594-3.938-39.211-3.938c-14.614,0-27.742,1.493-39.207,3.938c-6.129,1.227-11.816,2.805-16.98,4.641
		c-7.004,2.367-12.954,5.164-17.856,8.054c-2.629,1.578-3.5,4.985-2.011,7.618l1.488,2.625l4.55,7.875l4.118,7.266
		c0.695,1.398,2.012,2.274,3.406,2.617c0.527,0.18,1.141,0.266,1.664,0.266c0.442,0,0.789-0.086,1.226-0.172
		c18.465-4.985,43.149-7.524,59.602-7.524c16.453,0,41.137,2.539,59.602,7.524c0.965,0.258,2.015,0.172,2.89-0.094
		c1.489-0.343,2.715-1.218,3.5-2.617l4.118-7.18l4.461-7.961l1.484-2.625C333.633,321.969,332.758,318.562,330.133,316.984z" style="fill: rgb(231, 213, 0);"></path>
</g>
</svg>
